<?xml version="1.0" encoding="utf-8"?>
<!-- Svg Vector Icons : http://www.onlinewebfonts.com/icon -->
<!DOCTYPE svg PUBLIC "-//W3C//DTD SVG 1.1//EN" "http://www.w3.org/Graphics/SVG/1.1/DTD/svg11.dtd">
<svg version="1.1" xmlns="http://www.w3.org/2000/svg" xmlns:xlink="http://www.w3.org/1999/xlink" x="0px" y="0px" viewBox="0 0 1000 1000" enable-background="new 0 0 1000 1000" xml:space="preserve">
<metadata> Svg Vector Icons : http://www.onlinewebfonts.com/icon </metadata>
<g>
    <g transform="translate(0.000000,511.000000) scale(0.100000,-0.100000)">
        <path fill="#ffffff" d="M3767.3,3935.3c-195.2-51.4-345.2-176.7-447.9-367.8c-53.4-100.7-55.5-113-65.8-554.7l-10.3-452l-1325.2-10.3c-1298.5-10.3-1327.2-10.3-1417.6-53.4c-147.9-69.8-258.9-180.8-332.8-332.8L100,2026.7V-603.1v-2629.8l45.2-98.6c67.8-143.8,211.6-287.6,361.6-355.4l127.4-59.6H5000h4365.8l117.1,55.5c162.3,76,287.6,197.2,357.5,351.3l59.6,127.4v2619.5v2619.5l-53.4,115.1c-74,156.1-184.9,273.2-322.6,341l-117.1,57.5l-1325.2,10.3l-1325.2,10.3l-10.3,452c-10.3,427.3-12.3,458.2-59.6,544.4c-76,143.8-125.3,201.3-236.3,277.4c-193.1,131.5-223.9,133.5-1460.7,131.5C4081.6,3966.1,3859.7,3960,3767.3,3935.3z M6152.6,3596.3c39.1-14.4,96.6-47.3,127.4-78.1c110.9-100.7,117.1-131.5,117.1-567v-400.6H5000H3602.9v400.6c0,429.4,8.2,466.4,106.8,558.8c115,106.8,108.9,106.8,1282,108.9C5754,3618.9,6103.3,3612.8,6152.6,3596.3z M9369.9,2166.4c39-18.5,96.6-69.8,125.3-115l55.5-84.2l6.2-2527c4.1-2274.3,2.1-2537.3-26.7-2615.4c-39-102.7-125.3-180.8-232.1-211.6c-106.8-28.8-8489.2-28.8-8596.1,0c-106.8,30.8-193.1,108.9-232.2,211.6c-28.8,78.1-30.8,341.1-26.7,2615.4l6.2,2527l53.4,82.2c108.9,166.4-320.5,152,4493.2,152C8959,2201.3,9304.2,2199.2,9369.9,2166.4z"/>
        <path fill="#ffffff" d="M4352.8,1102.1l-51.4-49.3V578.2V105.7h-472.5h-474.6L3305,54.3L3253.7,5V-601v-606.1l53.4-41.1c51.4-41.1,80.1-43.2,523.9-43.2h470.5v-470.5c0-443.8,2.1-472.5,43.1-523.9l41.1-53.4H5000h614.3l41.1,53.4c41.1,51.4,43.1,80.1,43.1,523.9v470.5H6169c443.8,0,472.5,2.1,523.9,43.2l53.4,41.1V-601V5L6695,54.3l-49.3,51.4h-474.6h-472.5v472.5v474.6l-51.4,49.3l-49.3,51.4H5000h-597.9L4352.8,1102.1z M5349.3,350.2c0-458.1,8.2-511.6,80.1-567c24.6-18.5,164.4-24.6,501.3-26.7h466.4v-349.3v-349.3h-464.3h-464.3l-59.6-59.6l-59.6-59.6v-464.3v-464.3H5000h-349.3v464.3v464.3l-59.6,59.6l-59.6,59.6h-464.3h-464.3v349.3v349.3h468.4c334.9,2.1,474.6,8.2,499.3,26.7c71.9,55.5,80.1,108.9,80.1,567v454H5000h349.3V350.2z"/>
    </g>
</g>
</svg>